<?xml version="1.0" encoding="UTF-8"?>
<svg id="b" xmlns="http://www.w3.org/2000/svg" version="1.1" viewBox="-3.9 -3.9 65.3 57.5">
  <!-- Generator: Adobe Illustrator 30.5.0, SVG Export Plug-In . SVG Version: 2.1.3 Build 41)  -->
  <defs>
    <style>
      .st0 {
        fill: #00aeef;
      }
    </style>
  </defs>
  <circle cx="28.75" cy="24.85" r="32" fill="#ffffff"/>
  <path d="M26.3,2.4h0c.7,0,1.2.5,1.2,1.2v9.5c0,.7-.5,1.2-1.2,1.2h0c-.7,0-1.2-.5-1.2-1.2V3.6c0-.7.5-1.2,1.2-1.2Z"/>
  <path d="M26.3,35.7h0c.7,0,1.2.5,1.2,1.2v9.5c0,.7-.5,1.2-1.2,1.2h0c-.7,0-1.2-.5-1.2-1.2v-9.5c0-.7.5-1.2,1.2-1.2Z"/>
  <path d="M15.7,25h0c0,.7-.5,1.2-1.2,1.2H5c-.7,0-1.2-.5-1.2-1.2h0c0-.7.5-1.2,1.2-1.2h9.5c.7,0,1.2.5,1.2,1.2Z"/>
  <path d="M27.2,28.2s0-.1,0,0c-.4.5-1.1.6-1.5.2l-4-3.3c-.4-.4-.4-1.1,0-1.6s1.1-.6,1.5-.2l3,2.4,5.1-5.1c-1.1-1.2-2.6-2-4.4-2.2-3.7-.3-6.9,2.4-7.2,6.1s2.4,6.9,6.1,7.2c3.7.3,6.8-2.4,7.2-6.1s0-2.1-.4-3l-5.2,5.4-.2.2Z"/>
  <path d="M10.5,22c1.3-6.6,6.5-11.7,13.1-13v-2.5c-7.9,1.3-14.2,7.6-15.6,15.5h2.5Z"/>
  <path d="M10.4,27.6h-2.5c1.1,8.3,7.5,14.9,15.7,16.3v-2.5c-6.8-1.3-12.2-6.8-13.2-13.8Z"/>
  <path class="st0" d="M48.2,19.3c-2.7,0-5.1,2-5.7,4.5h-2.8c-.5-5.9-4.9-10.8-10.6-12v2.5c4.7,1.2,8.2,5.5,8.2,10.6s-3.5,9.4-8.2,10.6v2.5c5.7-1.2,10.1-6,10.6-11.9h2.8c.5,2.7,2.8,4.7,5.7,4.7s5.8-2.6,5.8-5.8-2.6-5.7-5.8-5.7h0ZM48.1,28.4c-1.8,0-3.3-1.5-3.3-3.3s1.5-3.3,3.3-3.3,3.3,1.5,3.3,3.3-1.5,3.3-3.3,3.3Z"/>
  <path class="st0" d="M13.3,21.9h2.5c1.1-3.6,4-6.4,7.6-7.4v-2.5c-5,1.1-9,5-10.2,10h.1Z"/>
  <path class="st0" d="M15.7,27.4h-2.5c1,5.3,5.1,9.5,10.3,10.6v-2.5c-3.9-1.1-6.9-4.2-7.8-8.1Z"/>
  <path d="M42.3,30c-1.8,5.9-6.9,10.4-13.2,11.4v2.5c7-.9,12.8-5.7,15.2-12.2-.8-.4-1.5-1-2-1.7Z"/>
  <path d="M44.3,18.6c-2.4-6.5-8.2-11.3-15.2-12.2v2.5c6.3,1,11.4,5.5,13.2,11.4.6-.7,1.3-1.2,2-1.7Z"/>
</svg>